<svg width="102" height="101" viewBox="0 0 102 101" fill="none" xmlns="http://www.w3.org/2000/svg">
<path d="M39.1715 99.1453C40.145 99.7482 49.7928 87.0043 51.5844 78.5864H47.7114H47.3204C45.352 84.8221 43.9934 87.5964 39.5654 92.551C38.7857 87.2404 38.3538 80.4574 38.7896 80.138C39.2254 79.8187 34.5166 83.2413 34.5166 83.2413C34.7182 94.2877 37.8714 99.9246 39.1715 99.1453Z" fill="#398D8D"/>
<path d="M47.7114 78.5864H47.3204M47.3204 78.5864H51.5844C49.7928 87.0043 40.145 99.7482 39.1715 99.1453C37.8714 99.9246 34.7182 94.2877 34.5166 83.2413C34.5166 83.2413 39.2254 79.8187 38.7896 80.138C38.3538 80.4574 38.7857 87.2404 39.5654 92.551C43.9934 87.5964 45.352 84.8221 47.3204 78.5864Z" stroke="#398D8D" stroke-width="0.558682"/>
<path d="M16.3365 85.9177C16.8191 86.9561 31.88 81.6032 37.9998 75.5518L34.4362 73.2104C29.367 77.3409 26.7081 78.9135 20.2868 80.6228C22.5513 75.7564 25.915 69.8503 26.4546 69.8227C26.9942 69.7952 21.1794 70.0699 21.1794 70.0699C15.2821 79.4126 14.8221 85.8551 16.3365 85.9177Z" fill="#398D8D"/>
<path d="M34.9574 73.5446L34.4362 73.2104M34.4362 73.2104L37.9998 75.5518C31.88 81.6032 16.8191 86.9561 16.3365 85.9177C14.8221 85.8551 15.2821 79.4126 21.1794 70.0699C21.1794 70.0699 26.9942 69.7952 26.4546 69.8227C25.915 69.8503 22.5513 75.7564 20.2868 80.6228C26.7081 78.9135 29.367 77.3409 34.4362 73.2104Z" stroke="#398D8D" stroke-width="0.558682"/>
<path d="M2.35461 64.6259C2.30946 65.7701 18.1521 67.8901 26.3607 65.3034L24.2606 61.5925C17.8642 62.9505 14.7806 63.1345 8.28776 61.7209C12.5256 58.4269 18.2162 54.7102 18.7087 54.9322C19.2013 55.1543 13.9034 52.7418 13.9034 52.7418C4.38898 58.3578 1.03614 63.8783 2.35461 64.6259Z" fill="#398D8D"/>
<path d="M24.2597 61.5926L24.2606 61.5925M24.2606 61.5925L26.3607 65.3034C18.1521 67.8901 2.30946 65.7701 2.35461 64.6259C1.03614 63.8783 4.38898 58.3578 13.9034 52.7418C13.9034 52.7418 19.2013 55.1543 18.7087 54.9322C18.2162 54.7102 12.5256 58.4269 8.28776 61.7209C14.7806 63.1345 17.8642 62.9505 24.2606 61.5925Z" stroke="#398D8D" stroke-width="0.558682"/>
<path d="M2.62577 38.2397C1.95974 39.1711 14.0361 49.6424 22.3167 51.9881L22.6949 47.73C16.6034 45.3525 13.8297 43.8165 9.17952 39.0699C14.5301 38.6439 21.3268 38.6625 21.6166 39.1186C21.9063 39.5746 18.8034 34.6493 18.8034 34.6493C7.76791 34.1182 1.9344 36.8909 2.62577 38.2397Z" fill="#398D8D"/>
<path d="M22.5995 47.7305L22.6949 47.73M22.6949 47.73L22.3167 51.9881C14.0361 49.6424 1.95974 39.1711 2.62577 38.2397C1.9344 36.8909 7.76791 34.1182 18.8034 34.6493C18.8034 34.6493 21.9063 39.5746 21.6166 39.1186C21.3268 38.6625 14.5301 38.6439 9.17952 39.0699C13.8297 43.8165 16.6034 45.3525 22.6949 47.73Z" stroke="#398D8D" stroke-width="0.558682"/>
<path d="M14.2255 15.0307C13.2067 15.5534 19.1421 30.3944 25.4273 36.2738L27.5409 32.7665L27.6282 32.6218C23.3033 27.7173 21.6283 25.1217 19.6702 18.7718C24.6212 20.845 30.6538 23.9761 30.7024 24.5142C30.7509 25.0524 30.2499 19.2527 30.2499 19.2527C20.6846 13.7238 14.2291 13.5151 14.2255 15.0307Z" fill="#398D8D"/>
<path d="M27.5409 32.7665L27.6282 32.6218M27.6282 32.6218L25.4273 36.2738C19.1421 30.3944 13.2067 15.5534 14.2255 15.0307C14.2291 13.5151 20.6846 13.7238 30.2499 19.2527C30.2499 19.2527 30.7509 25.0524 30.7024 24.5142C30.6538 23.9761 24.6212 20.845 19.6702 18.7718C21.6283 25.1217 23.3033 27.7173 27.6282 32.6218Z" stroke="#398D8D" stroke-width="0.558682"/>
<path d="M37.3435 2.30655C36.205 2.18394 33.016 17.8465 35.0404 26.2115L38.8878 24.3665C37.9665 17.8928 37.9892 14.805 39.8396 8.42295C42.8389 12.8743 46.1613 18.8037 45.9064 19.2801C45.6514 19.7565 48.4175 14.6343 48.4175 14.6343C43.4593 4.76109 38.1787 1.04178 37.3435 2.30655Z" fill="#398D8D" stroke="#398D8D" stroke-width="0.558682"/>
<path d="M64.3662 1.64286C63.4526 0.952574 52.6676 12.7495 50.1051 20.9657L54.3508 21.36C56.8875 15.3331 58.4968 12.6963 63.3641 8.17253C63.6493 13.5324 63.4521 20.3264 62.9886 20.604C62.5251 20.8817 67.5303 17.9093 67.5303 17.9093C68.3511 6.89152 65.7327 0.987164 64.3662 1.64286Z" fill="#398D8D"/>
<path d="M53.7337 21.3096L54.3508 21.36M54.3508 21.36L50.1051 20.9657C52.6676 12.7495 63.4526 0.952575 64.3662 1.64286C65.7327 0.987163 68.3511 6.89152 67.5303 17.9093C67.5303 17.9093 62.5251 20.8817 62.9886 20.604C63.4521 20.3264 63.6493 13.5324 63.3641 8.17253C58.4968 12.6963 56.8875 15.3331 54.3508 21.36Z" stroke="#398D8D" stroke-width="0.558682"/>
<path d="M86.5154 13.9593C86.0181 12.9278 71.0346 18.4937 65.0012 24.6312L68.5976 26.9219C73.6078 22.7199 76.2441 21.1098 82.6405 19.3096C80.4453 24.2077 77.1656 30.1609 76.6265 30.1961C76.0873 30.2313 81.8976 29.8742 81.8976 29.8742C87.6618 20.4488 88.0305 14.0004 86.5154 13.9593Z" fill="#398D8D"/>
<path d="M68.5984 26.9213L68.5976 26.9219M68.5976 26.9219L65.0012 24.6312C71.0346 18.4937 86.0181 12.9278 86.5154 13.9593C88.0305 14.0004 87.6618 20.4488 81.8976 29.8742C81.8976 29.8742 76.0873 30.2313 76.6265 30.1961C77.1656 30.1609 80.4453 24.2077 82.6405 19.3096C76.2441 21.1098 73.6078 22.7199 68.5976 26.9219Z" stroke="#398D8D" stroke-width="0.558682"/>
<path d="M99.9281 37.5823C100.079 36.4471 84.5001 32.8711 76.0876 34.6875L77.7527 38.6247C84.2472 37.8641 87.4174 37.9181 93.7517 39.926C89.2274 42.8141 83.2175 45.9885 82.7476 45.7219C82.2777 45.4552 87.3297 48.3473 87.3297 48.3473C97.3227 43.6354 101.172 38.4486 99.9281 37.5823Z" fill="#398D8D"/>
<path d="M77.8366 38.5795L77.7527 38.6247M77.7527 38.6247L76.0876 34.6875C84.5001 32.8711 100.079 36.4471 99.9281 37.5823C101.172 38.4486 97.3227 43.6354 87.3297 48.3473C87.3297 48.3473 82.2777 45.4552 82.7476 45.7219C83.2175 45.9885 89.2274 42.8141 93.7517 39.926C87.4174 37.9181 84.2472 37.8641 77.7527 38.6247Z" stroke="#398D8D" stroke-width="0.558682"/>
<path d="M99.78 63.7286C100.434 62.7887 88.226 52.4714 79.9163 50.2309L79.6967 54.32L79.6876 54.4887C85.8088 56.7887 88.5062 58.2942 93.2162 62.9815C87.8715 63.4753 81.075 63.5429 80.7795 63.0905C80.484 62.6382 83.6491 67.5238 83.6491 67.5238C94.6905 67.9149 100.488 65.0685 99.78 63.7286Z" fill="#398D8D"/>
<path d="M79.6967 54.32L79.6876 54.4887M79.6876 54.4887L79.9163 50.2309C88.226 52.4714 100.434 62.7887 99.78 63.7286C100.488 65.0685 94.6905 67.9149 83.6491 67.5238C83.6491 67.5238 80.484 62.6382 80.7795 63.0905C81.075 63.5429 87.8715 63.4753 93.2162 62.9815C88.5062 58.2942 85.8088 56.7887 79.6876 54.4887Z" stroke="#398D8D" stroke-width="0.558682"/>
<path d="M63.4806 98.4736C64.6197 98.5901 67.7248 82.9107 65.6558 74.5566L61.9729 76.347L61.8209 76.4209C62.7769 82.8896 62.768 85.9787 60.9518 92.3706C57.9287 87.9354 54.5747 82.0238 54.827 81.5461C55.0794 81.0683 52.3408 86.2052 52.3408 86.2052C57.3517 96.0518 62.6521 99.7428 63.4806 98.4736Z" fill="#398D8D"/>
<path d="M61.9729 76.347L61.8209 76.4209M61.8209 76.4209L65.6558 74.5566C67.7248 82.9107 64.6197 98.5901 63.4806 98.4736C62.6521 99.7428 57.3517 96.0518 52.3408 86.2052C52.3408 86.2052 55.0794 81.0683 54.827 81.5461C54.5747 82.0238 57.9287 87.9354 60.9518 92.3706C62.768 85.9787 62.7769 82.8896 61.8209 76.4209Z" stroke="#398D8D" stroke-width="0.558682"/>
<path d="M85.3271 86.5417C86.393 86.1233 81.968 70.7641 76.3009 64.2869L73.6645 67.652C77.4784 72.9635 78.9681 75.7625 80.2829 82.276C75.5635 79.7191 69.8734 76.0017 69.8788 75.4615C69.8842 74.9212 69.8039 80.7419 69.8039 80.7419C78.7699 87.1976 85.1724 88.0495 85.3271 86.5417Z" fill="#398D8D"/>
<path d="M73.7448 67.7035L73.6645 67.652M73.6645 67.652L76.3009 64.2869C81.968 70.7641 86.393 86.1233 85.3271 86.5417C85.1724 88.0495 78.7699 87.1976 69.8039 80.7419C69.8039 80.7419 69.8842 74.9212 69.8788 75.4615C69.8734 76.0017 75.5635 79.7191 80.2829 82.276C78.9681 75.7625 77.4784 72.9635 73.6645 67.652Z" stroke="#398D8D" stroke-width="0.558682"/>
<circle cx="51" cy="50.2297" r="23" stroke="#3AB155" stroke-width="4"/>
</svg>
