<svg width="300" height="232" viewBox="0 0 300 232" fill="none" xmlns="http://www.w3.org/2000/svg">
<path d="M90.0939 227.502C92.3331 228.889 114.523 199.578 118.643 180.217H109.736H108.836C104.309 194.559 101.184 200.94 91 212.335C89.2067 200.121 88.2133 184.52 89.2157 183.786C90.2181 183.052 79.3879 190.923 79.3879 190.923C79.8517 216.33 87.1039 229.294 90.0939 227.502Z" fill="#2C7676"/>
<path d="M150.051 226.493C152.682 226.62 157.88 190.227 152.099 171.296L144.05 175.757L143.521 176.05C146.514 190.788 146.874 197.884 143.491 212.788C136.002 202.974 127.57 189.811 128.09 188.683C128.611 187.554 122.955 199.69 122.955 199.69C135.677 221.686 148.305 229.51 150.051 226.493Z" fill="#2C7676"/>
<path d="M199.719 197.278C199.719 194.491 198.061 180.217 189.139 166.834L178.433 166.834C182.002 173.971 186.462 177.54 188.015 187.59C177.099 181.824 163.922 173.413 163.921 172.17C163.921 170.928 163.878 184.316 163.878 184.316C184.655 198.945 199.4 200.749 199.719 197.278Z" fill="#2C7676"/>
<path d="M131.147 169.51L132.931 167.717C49.0674 184.677 33.0087 54.4122 132.039 63.3334L130.254 61.5581" stroke="#2A8B3F" stroke-width="7.13733"/>
<path d="M37.5747 197.079C38.6847 199.467 73.3243 187.155 87.3996 173.237L79.2035 167.852C67.5445 177.352 61.4291 180.969 46.6603 184.901C51.8686 173.708 59.605 160.124 60.846 160.061C62.0871 159.997 48.7133 160.629 48.7133 160.629C35.1498 182.117 34.0917 196.935 37.5747 197.079Z" fill="#2C7676"/>
<path d="M5.41529 148.109C5.31143 150.74 41.749 155.616 60.6284 149.667L55.7984 141.132C41.0869 144.255 33.9946 144.679 19.0613 141.427C28.8081 133.851 41.8963 125.303 43.0291 125.814C44.162 126.324 31.9772 120.776 31.9772 120.776C10.0943 133.692 2.38285 146.389 5.41529 148.109Z" fill="#2C7676"/>
<path d="M6.04084 87.4209C4.50899 89.5632 32.2841 113.647 51.3292 119.042L52.1992 109.248C38.189 103.78 31.8094 100.247 21.1142 89.3303C33.4203 88.3506 49.0527 88.3934 49.719 89.4423C50.3854 90.4912 43.2488 79.1631 43.2488 79.1631C17.8676 77.9417 4.4507 84.3186 6.04084 87.4209Z" fill="#2C7676"/>
<path d="M32.7184 34.0411C30.3751 35.2433 44.0264 69.3771 58.4822 82.8995L63.3433 74.8328L63.544 74.4999C53.597 63.2198 49.7446 57.2499 45.2411 42.6455C56.628 47.4138 70.5029 54.6152 70.6145 55.8529C70.7262 57.0905 69.574 43.7515 69.574 43.7515C47.574 31.0353 32.7266 30.5551 32.7184 34.0411Z" fill="#2C7676"/>
<path d="M85.8903 4.77679C83.2718 4.4948 75.9374 40.5181 80.5933 59.7573L89.4423 55.5139C87.3232 40.6245 87.3755 33.5228 91.6313 18.8443C98.5295 29.0822 106.171 42.7196 105.585 43.8153C104.998 44.911 111.36 33.1302 111.36 33.1302C99.9564 10.4221 87.8114 1.86788 85.8903 4.77679Z" fill="#2C7676"/>
<path d="M144.424 2.48971C142.224 1.04247 119.24 29.7346 114.591 48.9754L124.901 49.2444C129.819 35.0318 132.611 28.7384 143.103 17.6261C144.561 29.8846 145.128 45.5068 144.105 46.2135C143.083 46.9202 154.125 39.3478 154.125 39.3478C154.357 13.9382 147.462 0.779943 144.424 2.48971Z" fill="#2C7676"/>
<path d="M197.685 29.9612C196.392 27.6671 161.935 43.0131 148.992 57.9902L158.478 62.3597C169.357 51.9761 175.165 47.8883 189.581 42.8131C185.265 54.3791 180.553 64.0737 179.321 64.234C178.089 64.3943 189.585 65.1276 189.585 65.1276C201.425 42.6439 201.169 29.8321 197.685 29.9612Z" fill="#2C7676"/>
<path d="M114.059 95.962C119.591 95.962 123.651 97.104 126.24 99.3879C128.879 101.672 130.199 104.895 130.199 109.057C130.199 111.493 129.691 113.777 128.676 115.908C127.661 118.04 125.935 119.791 123.499 121.162C121.114 122.481 117.865 123.141 113.754 123.141H110.176V137.53H99.8983V95.962H114.059ZM113.83 103.956H110.176V115.071H112.688C114.11 115.071 115.353 114.868 116.419 114.462C117.485 114.056 118.322 113.421 118.931 112.559C119.54 111.696 119.845 110.579 119.845 109.209C119.845 107.483 119.363 106.189 118.398 105.326C117.434 104.413 115.911 103.956 113.83 103.956ZM136.462 137.53L151.003 95.962H163.946L178.639 137.53H167.752L164.935 128.622H150.242L147.501 137.53H136.462ZM152.45 120.4H162.651L160.215 112.102C160.012 111.391 159.733 110.452 159.378 109.285C159.023 108.118 158.667 106.925 158.312 105.707C158.007 104.438 157.728 103.398 157.475 102.585C157.322 103.398 157.094 104.438 156.789 105.707C156.485 106.976 156.155 108.194 155.8 109.361C155.495 110.528 155.241 111.442 155.038 112.102L152.45 120.4ZM204.2 103.423C202.119 103.423 200.317 103.956 198.795 105.022C197.323 106.087 196.206 107.61 195.445 109.59C194.684 111.569 194.303 113.954 194.303 116.746C194.303 121.009 195.115 124.283 196.739 126.567C198.363 128.8 200.927 129.917 204.429 129.917C206.256 129.917 208.058 129.688 209.834 129.231C211.661 128.775 213.514 128.191 215.392 127.48V135.931C213.514 136.692 211.61 137.251 209.682 137.606C207.753 137.961 205.647 138.139 203.363 138.139C198.846 138.139 195.115 137.251 192.171 135.474C189.278 133.647 187.147 131.135 185.776 127.937C184.406 124.689 183.721 120.933 183.721 116.67C183.721 112.457 184.508 108.727 186.081 105.478C187.705 102.23 190.04 99.6924 193.085 97.8653C196.13 96.0381 199.861 95.1245 204.276 95.1245C206.357 95.1245 208.489 95.3783 210.671 95.8859C212.905 96.3934 215.036 97.1293 217.066 98.0937L213.945 106.011C212.321 105.301 210.697 104.692 209.073 104.184C207.499 103.677 205.875 103.423 204.2 103.423ZM252.469 137.53H227.421V95.962H252.469V103.956H237.699V111.95H251.479V119.943H237.699V129.46H252.469V137.53ZM278.871 138.139C275.166 138.139 271.867 137.504 268.974 136.236C266.081 134.967 263.797 133.241 262.122 131.059C260.447 128.825 259.508 126.338 259.305 123.598H272.171C272.324 125.07 273.009 126.262 274.227 127.176C275.445 128.089 276.942 128.546 278.719 128.546C280.343 128.546 281.586 128.242 282.449 127.633C283.363 126.973 283.819 126.135 283.819 125.12C283.819 123.902 283.185 123.014 281.916 122.456C280.647 121.847 278.592 121.187 275.75 120.476C272.704 119.766 270.167 119.03 268.136 118.269C266.106 117.456 264.355 116.213 262.883 114.538C261.411 112.812 260.675 110.503 260.675 107.61C260.675 105.174 261.335 102.966 262.655 100.987C264.025 98.9565 266.005 97.3577 268.593 96.1904C271.232 95.023 274.354 94.4394 277.957 94.4394C283.287 94.4394 287.474 95.759 290.519 98.3982C293.615 101.037 295.391 104.539 295.848 108.904H283.819C283.616 107.432 282.957 106.265 281.84 105.402C280.774 104.539 279.353 104.108 277.577 104.108C276.054 104.108 274.887 104.413 274.075 105.022C273.263 105.58 272.857 106.367 272.857 107.382C272.857 108.6 273.491 109.513 274.76 110.122C276.079 110.732 278.11 111.341 280.85 111.95C283.997 112.762 286.56 113.574 288.54 114.386C290.519 115.147 292.245 116.416 293.717 118.192C295.239 119.918 296.026 122.253 296.077 125.196C296.077 127.683 295.366 129.917 293.945 131.896C292.575 133.825 290.57 135.347 287.931 136.464C285.342 137.581 282.322 138.139 278.871 138.139Z" fill="#297C63"/>
</svg>
